<?xml version="1.0" encoding="UTF-8"?>
<svg id="Capa_1" data-name="Capa 1" xmlns="http://www.w3.org/2000/svg" viewBox="0 0 500 355">
  <defs>
    <style>
      .cls-1 {
        fill: #fff;
      }
    </style>
  </defs>
  <path class="cls-1" d="m185.73,135.48h-87.66c-13.94,0-25.24,11.3-25.24,25.24s11.3,25.24,25.24,25.24h89.21c-1.84-9.7-2.81-19.84-2.81-30.34,0-6.88.45-13.59,1.26-20.15Z"/>
  <path class="cls-1" d="m227.46,50.05h-92.5c-13.94,0-25.24,11.3-25.24,25.24s11.3,25.24,25.24,25.24h59.32c7.38-19.49,18.69-36.58,33.18-50.48Z"/>
  <path class="cls-1" d="m197.89,219.46H61.18c-13.94,0-25.24,11.3-25.24,25.24s11.3,25.24,25.24,25.24h172.81c1.09,0,2.16-.09,3.22-.23-16.8-13.28-30.22-30.34-39.31-50.26Z"/>
  <path class="cls-1" d="m210.31,155.63c0-69.51,50.84-119.31,120.69-119.31s120.35,49.8,120.35,119.31c0,32.51-11.41,60.87-30.09,81.62l16.95,19.71-34.24,28.01-18.68-21.44c-15.91,7.26-34.58,11.41-54.3,11.41-69.86,0-120.69-49.8-120.69-119.31Zm144.56,71.93l-25.24-29.74,34.24-28.01,25.25,29.74c7.61-12.1,11.76-27.32,11.76-43.92,0-43.23-27.32-75.74-69.86-75.74s-70.2,32.51-70.2,75.74,27.32,75.74,70.2,75.74c8.65,0,16.6-1.38,23.86-3.8Z"/>
</svg>